PathFileType	4	(X/Y/Z)	pose_F01_0-77.trc
DataRate	CameraRate	NumFrames	NumMarkers	Units	OrigDataRate	OrigDataStartFrame	OrigNumFrames
30	30	7	21	m	30	57	77
Frame#	Time	CHip			RHip			RKnee			RAnkle			RBigToe			RSmallToe			RHeel			LHip			LKnee			LAnkle			LBigToe			LSmallToe			LHeel			Neck			Nose			RShoulder			RElbow			RWrist			LShoulder			LElbow			LWrist			
		X1	Y1	Z1	X2	Y2	Z2	X3	Y3	Z3	X4	Y4	Z4	X5	Y5	Z5	X6	Y6	Z6	X7	Y7	Z7	X8	Y8	Z8	X9	Y9	Z9	X10	Y10	Z10	X11	Y11	Z11	X12	Y12	Z12	X13	Y13	Z13	X14	Y14	Z14	X15	Y15	Z15	X16	Y16	Z16	X17	Y17	Z17	X18	Y18	Z18	X19	Y19	Z19	X20	Y20	Z20	X21	Y21	Z21	
57	1.9	-0.24662384457073816	1.8774912626981146	-0.5140720941313676	-0.25265246775006683	1.8745669032844103	-0.45446020965181183	-0.23077007282106404	1.7140857423799953	-0.412885040361705	-0.24016265290333985	1.5460901536190588	-0.31994033022994095	-0.20742994025531136	1.509614035699649	-0.35315668382549187	-0.2152500029881953	1.5095037018097919	-0.30955301419578324	-0.25289729467783717	1.5423701608962814	-0.3103818205135297	-0.2406537526959979	1.8784313033664843	-0.576424186047032	-0.23997448663674098	1.72212695839016	-0.5690856321223196	-0.2716730394129285	1.5927205588505813	-0.5231244062802651	-0.24098490053371438	1.5655537093444838	-0.5882656830757004	-0.24841973182634627	1.5725114412793004	-0.5986442277581254	-0.27198747004910384	1.582102357953932	-0.508148131351594	-0.24239514532292683	2.047093565315983	-0.5154323484876414	-0.21214487742636945	2.1146925649826507	-0.5663375362282959	-0.24497812022573012	2.0393240438676496	-0.42995771695472135	-0.19832894120113315	1.9931543309301518	-0.49785856767810366	-0.19025846479629446	2.0525139758872957	-0.514098434000036	-0.23736237660181436	2.051577895965889	-0.5963034090931341	-0.22144669477590212	1.9701717589691898	-0.6449210292032058	-0.21308984842166093	2.0097777430920893	-0.6255172740112815
58	1.9333333333333333	-0.24591153057491635	1.8728197924260177	-0.5187442603451632	-0.2527329152468872	1.8696821117094213	-0.45369133437006737	-0.23317701220861214	1.7137831457697792	-0.41912287477513	-0.24082286926742644	1.549779098172173	-0.3195180254206741	-0.20642932959617452	1.5101362360981445	-0.3498248961456964	-0.21408620158319952	1.5095135824538173	-0.3062270714326609	-0.25314243039334283	1.5439878263346303	-0.3102117095208335	-0.23672707108179922	1.8751625031041879	-0.5804649531293489	-0.238161942484461	1.7236740335471734	-0.5711004243716924	-0.27192013381528074	1.5940322858774416	-0.5229131511109357	-0.24123795993885588	1.5668119449043505	-0.5880894129456661	-0.24956896474596763	1.5735427185006319	-0.6015456561694866	-0.27198747004910384	1.582102357953932	-0.508148131351594	-0.24180404547564005	2.04147661570434	-0.5204418042417883	-0.21295676033918484	2.1138549655695824	-0.5770057279457956	-0.24442727318017687	2.033579304959603	-0.4350489544854874	-0.19769952434670082	1.9866597714740464	-0.5029915415154455	-0.19623187161097042	2.0432253896656847	-0.5134305787813965	-0.2363428485137855	2.0502723186975267	-0.6016316718385607	-0.22346342808340056	1.966564243941635	-0.6506217527670826	-0.21269671808418292	2.002170630299477	-0.6321009696205003
59	1.9666666666666666	-0.24856205987081317	1.8782602959554757	-0.5206104405947033	-0.2517415872266976	1.8752182390824015	-0.4600586535597024	-0.23297786434525777	1.7118592073829264	-0.4192649472232295	-0.24029932294290082	1.5493843994170537	-0.320355216432407	-0.20667796206985375	1.5110623457998624	-0.3497144021133106	-0.21461314420829214	1.5118026864311007	-0.30586296312932754	-0.2532708327514453	1.5444048936229842	-0.31020723231306435	-0.24056645128195095	1.8806370406876585	-0.5767455010615871	-0.23811710003888506	1.7239748725081936	-0.5712246595740477	-0.2692284178725964	1.5931337854585093	-0.5257880201272989	-0.2424078975407836	1.5649449122374035	-0.5910554107329483	-0.24740995138498664	1.5728668801952934	-0.6039762617662351	-0.27198747004910384	1.582102357953932	-0.508148131351594	-0.24291080363107756	2.0404103157068287	-0.5236640917050583	-0.21385837669309768	2.112731885074311	-0.5804415479211994	-0.24465833619010866	2.0350570313864007	-0.4441085511115463	-0.1976083422159353	1.9846370537380722	-0.5020699108533393	-0.19292155178216522	2.053777058326497	-0.5058078421958997	-0.23959371016214653	2.045081301021373	-0.6023686498802511	-0.2266453996111483	1.964823905109501	-0.651557600774603	-0.2165293140625331	2.0026296016866234	-0.6361557637896491
60	2.0	-0.24712098283371867	1.8760390798708444	-0.5225685648310352	-0.25215280274463	1.8717349776759244	-0.4596393290516274	-0.23269482850236334	1.7132437753939	-0.4196981232235344	-0.2405117642933012	1.5481677101358262	-0.3197724564709383	-0.20836786058143744	1.51013074559403	-0.34763622266273986	-0.21542091542320543	1.5127379822839429	-0.3098014217214287	-0.253070234431857	1.5437806260576155	-0.3101897261266006	-0.23923156661941264	1.8772788873695763	-0.5785785455796324	-0.2380842583321994	1.723747509462115	-0.5712911939463851	-0.2696256243460374	1.5924662561002372	-0.5252969404612535	-0.23967239377415794	1.5669411165143212	-0.5896955020327951	-0.24770030247531638	1.5745221301125067	-0.6036467932654881	-0.27198747004910384	1.582102357953932	-0.508148131351594	-0.24294583533932615	2.038963543711974	-0.5231837773646868	-0.21287161838884933	2.1115262842489675	-0.5849511539520303	-0.24465076010830342	2.033514312357304	-0.44369140799698964	-0.2015736740916419	1.977689144942487	-0.5049461808725733	-0.1926198313900159	2.052870205554696	-0.5037368762977721	-0.2417691564719029	2.0441142482609407	-0.6002958776629279	-0.2267779131242701	1.9624061700754376	-0.6512982899303333	-0.21323566120678464	2.004642626309702	-0.6337162205737689
61	2.033333333333333	-0.24786623985559347	1.875614377135571	-0.5257343576319078	-0.2530629070837775	1.8729285792802366	-0.4630772694208381	-0.2323793927715816	1.7182408794123338	-0.4251140726383154	-0.24230559919150363	1.5493025966472451	-0.32229031629881527	-0.20509400640668882	1.5101608470248138	-0.3513542332684677	-0.21410245945543507	1.511021273224575	-0.3108581241401871	-0.254392176456386	1.5442173869890568	-0.3135488698088446	-0.23992426448319498	1.8769352402628465	-0.5817042491578324	-0.23904018036166672	1.7241474018817617	-0.5745573695543496	-0.26915539838317226	1.5928289753704745	-0.5257838294332843	-0.24118751769861718	1.5665071444593182	-0.5883933970096832	-0.2475828089384843	1.5736414291142902	-0.6039419366572809	-0.27198747004910384	1.582102357953932	-0.508148131351594	-0.24496481193616523	2.038013110326493	-0.52938892452544	-0.21488304100088298	2.107850467918125	-0.582596705157553	-0.2467495762328734	2.033884291801857	-0.45004778904398224	-0.20252791729638514	1.970495998547206	-0.497264682757976	-0.19350239540891465	2.039002888675042	-0.4949383179169951	-0.24272151636894704	2.042722305610809	-0.6029088737460526	-0.22865469461452656	1.9604281159548316	-0.6569989979879739	-0.2131364189237773	2.0020825624947856	-0.633004941584729
62	2.066666666666667	-0.24808486908803828	1.8719866020000344	-0.5252100169946787	-0.2542164569393563	1.8717362111705649	-0.4659851193537777	-0.23252587956694823	1.7165151175924076	-0.42483224578232653	-0.24121014375218253	1.5492384076851682	-0.31897848253037436	-0.2078894179269903	1.5114704850575076	-0.3531294285526917	-0.21410124088459226	1.5128925529873418	-0.31141509366984355	-0.25334602314898397	1.5448209590247246	-0.3102386358988093	-0.24014215494016425	1.8734348971531152	-0.5812060274292304	-0.2399295669002429	1.7204613167917584	-0.5775110949615277	-0.27165602400424577	1.592666045718131	-0.5231969860184789	-0.2401135641989761	1.5666736640484469	-0.5939110705126674	-0.24763356649741958	1.5737470647966552	-0.6040598589702117	-0.27198747004910384	1.582102357953932	-0.508148131351594	-0.24494054535978485	2.035306673671787	-0.5285742449358662	-0.21333464332880833	2.100451724122587	-0.5761227044208087	-0.24782256229011973	2.031520662922632	-0.4528330994056059	-0.21459236890485023	1.962148832654171	-0.4825759667272365	-0.19286536872083143	2.02552301641047	-0.48865771618941906	-0.242705316042159	2.0395372735750983	-0.6021590190676598	-0.233090741176075	1.9569663125812606	-0.6521937005852279	-0.20897135827402546	2.0035833602284585	-0.6190871414202406
63	2.1	-0.24790969508326222	1.8689642994084872	-0.5247347988862535	-0.2529063189506467	1.8671094365716334	-0.4619963210579772	-0.23030800400432025	1.71442734788827	-0.42717201367800256	-0.24307982067589645	1.5513070777254216	-0.32124903826760864	-0.20679322775051076	1.5117444601820123	-0.34986397904429356	-0.21405014967853886	1.5128931060666029	-0.31145801961749225	-0.25410962660975916	1.5472759470108464	-0.3089485674374345	-0.24089552560141358	1.8706138899442009	-0.5838840676656915	-0.23777107576490572	1.7195046256975415	-0.5798050128144214	-0.2716010413974719	1.592352665690625	-0.5232519234351749	-0.2438727932523854	1.5665823334893956	-0.5856079034332536	-0.25007053495119935	1.575462038289943	-0.6017809175830415	-0.27198747004910384	1.582102357953932	-0.508148131351594	-0.2448450584723051	2.0338529473464555	-0.5281124229272475	-0.2116990156088748	2.096480528290612	-0.5694609200962771	-0.2496196066992179	2.0287195374432994	-0.4495317697654096	-0.21807426819895828	1.9495165656192883	-0.47276330393361693	-0.19271855639068183	2.015075918348156	-0.4763724534891072	-0.23620046754981222	2.038675766718719	-0.6165478326695125	-0.22945271093360547	1.955321035208585	-0.659772497185209	-0.21058891217684084	1.9933748645454918	-0.6226169013169089
